<svg viewBox="-40 120 3279.9999999999995 1800.0000000000002" xmlns="http://www.w3.org/2000/svg" xmlns:xlink="http://www.w3.org/1999/xlink" overflow="visible" width="3279.9999999999995px" height="1800.0000000000002px"><defs><polygon id="masterscenesonline-searching-path-5" points="0.885 0.4042 225.003 0.4042 225.003 229 0.885 229"/><polygon id="masterscenesonline-searching-path-7" points="0.354636271 0.4782 167.3115 0.4782 167.3115 15 0.354636271 15"/><path d="M363.685,181.685 C363.685,81.345 282.34,0 182,0 C81.66,0 0.315,81.345 0.315,181.685 C0.315,282.02 81.66,363.365 182,363.365 C282.34,363.365 363.685,282.02 363.685,181.685" id="masterscenesonline-searching-path-1"/><path d="M363.685,181.685 C363.685,81.345 282.34,0 182,0 C81.66,0 0.315,81.345 0.315,181.685 C0.315,282.02 81.66,363.365 182,363.365 C282.34,363.365 363.685,282.02 363.685,181.685" id="masterscenesonline-searching-path-3"/></defs><g id="Master/Scenes/Online Searching" stroke="none" stroke-width="1" fill="none" fill-rule="evenodd"><g id="Background" transform="translate(-112.000000, -177.000000)"><g id="Outdoor Plants" transform="translate(2557.000000, 1085.000000) scale(1 1)"><g id="Outdoor Plants/Bush" stroke="none" stroke-width="1" fill="none" fill-rule="evenodd"><g id="Group-16-Copy" transform="translate(98.000000, 689.000000)"><path d="M2.39500229,275.969448 C4.95578,275.610539 7.81571397,276.244612 10.3764917,275.885703 L558,275.885703 C557.748709,255.057012 545.866222,224.872758 527.67752,214.67974 C509.500785,204.498686 485.903338,204.821704 468.013793,215.46934 C476.079046,172.735231 481.918576,128.086941 470.155752,86.2022508 C458.41686,44.3175605 424.971188,5.75876099 381.773022,0.590470148 C341.267263,-4.24283888 301.934196,21.2038153 278.611973,54.6661058 C255.28975,88.1283962 244.831246,128.637268 234.815494,168.165122 C235.952288,149.465959 226.678444,130.479668 211.253946,119.855959 C195.817483,109.23225 174.768847,107.365923 157.704973,115.094432 C138.654702,123.720214 125.982442,142.814177 120.107013,162.889159 C114.24355,182.976104 114.255516,204.223522 114.315347,225.135958 C102.109771,197.476031 66.8212974,182.581304 38.4971814,193.133231 C10.1610992,203.697122 -6.48395591,247.077267 2.39500229,275.969448" id="Fill-1" fill="#F67A49"/><path d="M118.397008,275.974803 C119.891241,275.760692 121.552828,276.153228 123.047061,275.927223 L442,275.927223 C441.856554,263.85377 434.923314,246.356186 424.344146,240.456253 C413.753025,234.556319 400.018038,234.734745 389.59427,240.920159 C394.292138,216.142818 397.687034,190.247344 390.849426,165.969594 C383.999863,141.691845 364.515068,119.341089 339.352189,116.343542 C315.76722,113.536316 292.863621,128.286149 279.27208,147.686938 C265.692493,167.087727 259.607977,190.556615 253.762539,213.478332 C254.420001,202.641962 249.02881,191.639062 240.039506,185.489334 C231.050202,179.32771 218.785539,178.233367 208.85188,182.717792 C197.758697,187.725599 190.37121,198.787974 186.952406,210.42131 C183.545555,222.066541 183.545555,234.389789 183.581417,246.498926 C176.480823,230.476325 155.92018,221.840536 139.423851,227.966474 C122.915568,234.080518 113.220986,259.226605 118.397008,275.974803" id="Fill-4" fill="#FFB201"/></g></g></g><g id="Screen" transform="translate(591.000000, 705.000000) scale(1 1)"><g id="Screen/Laptop 3" stroke="none" stroke-width="1" fill="none" fill-rule="evenodd"><g id="Group"><path d="M2021.3995,1329.31 L156.8995,1329.31 C116.6695,1329.31 84.0595,1296.705 84.0595,1256.475 L84.0595,72.835 C84.0595,32.61 116.6695,-2.27373675e-13 156.8995,-2.27373675e-13 L2021.3995,-2.27373675e-13 C2061.6295,-2.27373675e-13 2094.2345,32.61 2094.2345,72.835 L2094.2345,1256.475 C2094.2345,1296.705 2061.6295,1329.31 2021.3995,1329.31" id="Fill-1" fill="#008BF2"/><path d="M2088.885,1347.308 L88.985,1347.308 C39.84,1347.308 0,1307.463 0,1258.318 L0,1230.993 L2177.875,1230.993 L2177.875,1258.318 C2177.875,1307.463 2138.03,1347.308 2088.885,1347.308" id="Fill-4" fill="#276DFF"/><polygon id="Fill-7" fill="#FFF" points="138.0175 1175.397 2034.6575 1175.397 2034.6575 52.812 138.0175 52.812"/><polygon id="Fill-9" fill="#090E2B" points="890.987 1230.9945 918.012 1273.9845 1298.292 1273.9845 1323.392 1230.9945"/></g><rect id="Rectangle" fill="#FFB201" x="448" y="152" width="1323" height="431" rx="215.5"/><path d="M1490.0648,775 L1399.9352,775 C1378.4312,775 1361,757.5664 1361,736.0648 L1361,645.9352 C1361,624.4312 1378.4312,607 1399.9352,607 L1490.0648,607 C1511.5688,607 1529,624.4312 1529,645.9352 L1529,736.0648 C1529,757.5664 1511.5688,775 1490.0648,775 Z" id="Stroke-7" fill="#FF0057"/><path d="M1661.0648,963 L1570.9352,963 C1549.4312,963 1532,945.5688 1532,924.0648 L1532,833.9352 C1532,812.4312 1549.4312,795 1570.9352,795 L1661.0648,795 C1682.5688,795 1700,812.4312 1700,833.9352 L1700,924.0648 C1700,945.5688 1682.5688,963 1661.0648,963 Z" id="Stroke-13-Copy" fill="#A191FF"/><g id="UI Elements" transform="translate(285.000000, 269.000000) scale(1 1)"><g id="UI Elements/UI Card 1" stroke="none" stroke-width="1" fill="none" fill-rule="evenodd"><g id="userinterface" transform="translate(1.000000, 17.000000)"><path d="M1072.3832,793.4326 L68.6102,793.4326 C55.8452,793.4326 45.4982,783.0856 45.4982,770.3206 L45.4982,61.6156 C45.4982,48.8506 55.8452,38.5006 68.6102,38.5006 L1072.3832,38.5006 C1085.1482,38.5006 1095.4952,48.8506 1095.4952,61.6156 L1095.4952,770.3206 C1095.4952,783.0856 1085.1482,793.4326 1072.3832,793.4326 Z" id="Stroke-1-Copy" fill="#090E2B"/><path d="M1029.885,757.932 L26.112,757.932 C13.347,757.932 3,747.585 3,734.82 L3,26.115 C3,13.35 13.347,3 26.112,3 L1029.885,3 C1042.65,3 1052.997,13.35 1052.997,26.115 L1052.997,734.82 C1052.997,747.585 1042.65,757.932 1029.885,757.932 Z" id="Stroke-1" fill="#FFF"/><path d="M1029.885,4.54747351e-13 L26.112,4.54747351e-13 C11.6905975,4.54747351e-13 0,11.6926939 0,26.115 L0,734.82 C0,749.241854 11.6901458,760.932 26.112,760.932 L1029.885,760.932 C1044.30685,760.932 1055.997,749.241854 1055.997,734.82 L1055.997,26.115 C1055.997,11.6926939 1044.3064,4.54747351e-13 1029.885,4.54747351e-13 Z M26.112,6 L1029.885,6 C1040.99245,6 1049.997,15.0061616 1049.997,26.115 L1049.997,734.82 C1049.997,745.928146 1040.99315,754.932 1029.885,754.932 L26.112,754.932 C15.0038542,754.932 6,745.928146 6,734.82 L6,26.115 C6,15.0061616 15.0045468,6 26.112,6 Z" id="Stroke-1-Copy-2" fill="#090E2B" fill-rule="nonzero"/><path d="M617.1762,372.0626 L197.7822,372.0626 C160.6212,372.0626 130.4982,341.9396 130.4982,304.7786 C130.4982,267.6236 160.6212,237.5006 197.7822,237.5006 L617.1762,237.5006 C654.3342,237.5006 684.4572,267.6236 684.4572,304.7786 C684.4572,341.9396 654.3342,372.0626 617.1762,372.0626 Z" id="Stroke-5" fill="#FFB201"/><path d="M854.382,370.2114 L854.382,370.2114 C817.224,370.2114 787.098,340.0884 787.098,302.9274 C787.098,265.7724 817.224,235.6494 854.382,235.6494 C891.54,235.6494 921.663,265.7724 921.663,302.9274 C921.663,340.0884 891.54,370.2114 854.382,370.2114 Z" id="Stroke-7" fill="#C7D2F2"/><g id="cross" transform="translate(945.572500, 53.129500)" fill="#000" fill-rule="nonzero"><path d="M43.8180195,1.81801948 C45.5753788,0.0606601718 48.4246212,0.0606601718 50.1819805,1.81801948 C51.8844223,3.52046132 51.9376237,6.24760984 50.3415844,8.01409585 L50.1819805,8.18198052 L8.18198052,50.1819805 C6.4246212,51.9393398 3.5753788,51.9393398 1.81801948,50.1819805 C0.11557765,48.4795387 0.062376343,45.7523902 1.65841556,43.9859042 L1.81801948,43.8180195 L43.8180195,1.81801948 Z" id="Stroke-9"/><path d="M1.81801948,1.81801948 C3.52046132,0.11557765 6.24760984,0.062376343 8.01409585,1.65841556 L8.18198052,1.81801948 L50.1819805,43.8180195 C51.9393398,45.5753788 51.9393398,48.4246212 50.1819805,50.1819805 C48.4795387,51.8844223 45.7523902,51.9376237 43.9859042,50.3415844 L43.8180195,50.1819805 L1.81801948,8.18198052 C0.0606601718,6.4246212 0.0606601718,3.5753788 1.81801948,1.81801948 Z" id="Stroke-11"/></g><path d="M727.2462,457.5006 C737.187325,457.5006 745.2462,465.559475 745.2462,475.5006 C745.2462,485.331269 737.365417,493.321282 727.576865,493.497624 L727.2462,493.5006 L148.4982,493.5006 C138.557075,493.5006 130.4982,485.441725 130.4982,475.5006 C130.4982,465.669931 138.378983,457.679918 148.167535,457.503576 L148.4982,457.5006 L727.2462,457.5006 Z" id="Stroke-13" fill="#C7D2F2" fill-rule="nonzero"/><path d="M479.0502,564.5006 C488.991325,564.5006 497.0502,572.559475 497.0502,582.5006 C497.0502,592.331269 489.169417,600.321282 479.380865,600.497624 L479.0502,600.5006 L148.4982,600.5006 C138.557075,600.5006 130.4982,592.441725 130.4982,582.5006 C130.4982,572.669931 138.378983,564.679918 148.167535,564.503576 L148.4982,564.5006 L479.0502,564.5006 Z" id="Stroke-15" fill="#C7D2F2" fill-rule="nonzero"/></g></g></g></g></g><g id="Medium Plants" transform="translate(0.000000, 1250.000000) scale(1 1)"><g id="Medium Plants/Plant 1" stroke="none" stroke-width="1" fill="none" fill-rule="evenodd"><g id="Group" transform="translate(277.000000, 297.000000)"><path d="M79.3649352,206.473842 C50.7765177,148.413459 23.0301485,127.298886 14.224871,120.516751 C22.3530117,136.794627 86.5510811,322.095424 95.4325678,370.613777 C65.6285523,311.882812 50.2617937,299.195552 44.704774,293.481844 C29.6640906,278.015923 10.8379374,267.027638 0,261.60168 C4.7449552,268.191148 60.2839187,334.857749 79.9271337,393.190868 L95.5062783,421 L173.400752,421 C173.400752,421 181.528893,393.98781 194.398241,382.057457 C207.267589,370.128355 255.765344,310.408958 263.216347,275.138351 C245.238684,295.953189 188.070874,370.128355 177.900839,382.057457 C202.963647,311.117148 206.726531,304.563028 228.145043,265.22264 C249.563556,225.881001 293.968589,168.279448 296,166.923271 C272.969851,179.132616 205.258042,221.800132 173.147138,306.330171 C159.728386,341.654237 155.521591,364.150668 155.521591,364.150668 C155.521591,364.150668 170.023969,293.547719 169.345583,224.361432 C168.668446,155.175144 173.400752,0 173.400752,0 C173.400752,0 142.526988,54.1850727 131.085715,142.024766 C126.854637,174.508618 123.28513,307.941892 124.639404,340.219902 C124.639404,340.219902 107.121299,262.844008 79.3649352,206.473842 Z" id="Fill-1" fill="#009BA0"/><path d="M178.622375,503 L88.8828152,503 C75.6927553,503 65,484.764466 65,471.532066 L65,382 L205,382 L205,469.029248 C205,483.583136 193.129694,503 178.622375,503" id="Fill-4" fill="#FFB201"/></g></g></g><g id="Flying Objects" opacity=".5" transform="translate(2376.000000, 97.000000) scale(1 1)"><g id="Flying Objects/Cloud 2" stroke="none" stroke-width="1" fill="none" fill-rule="evenodd"><path d="M479.95575,473.895048 C489.613069,459.137123 499.099888,436.733126 487.997876,423.547909 C481.436886,415.755283 470.330969,416.37302 462.370839,421.934228 C454.409408,427.495437 448.858402,436.870226 443.55859,445.96136 C452.064059,424.955151 460.742631,403.137375 461.346539,379.753193 C461.950447,356.369012 424.683149,265.573363 301,363.097442 C274.191914,384.2356 253.304938,454.747164 158,473.792617 C160.945352,473.792617 156.578734,478.669903 159.524086,478.669903 L479.95575,473.895048 Z" id="cloud" fill="#E4E8FD" transform="translate(325.500000, 398.771931) scale(-1, 1) translate(-325.500000, -398.771931)"/></g></g><g id="Outdoor Plants" transform="translate(2517.000000, 1088.000000) scale(1 1)"><g id="Outdoor Plants/Plant 1" stroke="none" stroke-width="1" fill="none" fill-rule="evenodd"><g id="Group-6" transform="translate(3.000000, 208.000000)"><path d="M199.883326,757 C199.883326,757 154.639614,615.704437 63.7021884,486.352218 C-27.2352371,357 -13.9695544,268.907181 63.7021884,246.214912 C141.373931,223.522642 267.592553,290.509829 306.646043,382.031679 C331.898655,441.210897 374.804123,628.371706 268.960535,757 C238.721051,756.165996 199.883326,757 199.883326,757 Z" id="Stroke-8" fill="#017C7F"/><path d="M180.80074,266.460237 C125.13078,13.4204746 221.50036,-21.2992546 328.620701,9.33958092 C435.741041,39.9784164 507.960342,173.305169 491.620701,300.677192 C466.681525,495.084959 320.447913,757 320.447913,757 L236.4707,757 C236.4707,598.666667 217.914047,435.153412 180.80074,266.460237 Z" id="Stroke-10" fill="#009BA0"/><path d="M299.869545,92.3392506 C301.326008,91.6825172 303.029928,92.2842179 303.76044,93.6823222 L303.857175,93.8846724 L304.316098,94.9397143 L304.887232,96.295742 C305.10977,96.8312409 305.345953,97.4073406 305.595259,98.0239333 L305.978996,98.9791786 C307.658678,103.18678 309.527498,108.198532 311.537907,114.004614 C317.270818,130.561319 322.999418,150.177346 328.343248,172.774008 C340.981111,226.213867 349.496836,287.717379 351.998041,356.891597 C354.239813,418.890863 350.075029,478.447706 339.405709,544.65636 L339.021897,547.023799 C329.749389,603.877937 316.614263,662.450624 292.750418,757.276586 C292.346063,758.883341 290.715735,759.858079 289.10898,759.453724 C287.502225,759.049369 286.527487,757.419042 286.931842,755.812287 L289.047362,747.388625 C311.539988,657.63471 324.138912,601.00352 333.100137,546.058001 C343.991922,479.275307 348.255457,419.431969 346.001959,357.108403 C343.515192,288.333464 335.05336,227.219184 322.504303,174.154847 L321.81134,171.250364 C316.714465,150.074656 311.289348,131.624212 305.868175,115.96781 L305.247809,114.188627 C303.503926,109.222351 301.87886,104.891689 300.406603,101.203688 L299.855033,99.8349225 C299.678602,99.4014064 299.50967,98.9906447 299.348457,98.6026828 L298.799647,97.2995385 L298.367875,96.3072458 C297.686818,94.7968393 298.359139,93.0203074 299.869545,92.3392506 Z" id="Path-6" fill="#090E2B" fill-rule="nonzero"/><path d="M589.575739,282.556489 C750.420208,274.363901 760.643075,407.886816 739.778496,462.864438 C715.162837,527.72606 641.307604,570.960237 582.304218,596.642758 C443.495397,657.062349 408.155852,757 408.155852,757 L286.620701,757 C286.620701,757 309.812449,296.806189 589.575739,282.556489 Z" id="Stroke-12" fill="#FFB201"/><path d="M613.533995,384.77167 C615.068698,384.147289 616.818982,384.88525 617.443363,386.419953 C618.067745,387.954656 617.329784,389.70494 615.795081,390.329322 C475.369379,447.460406 387.980539,569.583887 353.571426,757.085934 C353.272365,758.715574 351.708844,759.794222 350.079203,759.495162 C348.449563,759.196101 347.370914,757.63258 347.669975,756.002939 C382.426899,566.605602 471.067283,442.733123 613.533995,384.77167 Z" id="Path-3" fill="#090E2B" fill-rule="nonzero"/></g></g></g><g id="Flying Objects" opacity=".5" transform="translate(1017.000000, 400.000000) scale(-1, 1) translate(-1017.000000, -400.000000) translate(667.000000, 0.000000) scale(1 1)"><g id="Flying Objects/Cloud 2" stroke="none" stroke-width="1" fill="none" fill-rule="evenodd"><path d="M479.95575,473.895048 C489.613069,459.137123 499.099888,436.733126 487.997876,423.547909 C481.436886,415.755283 470.330969,416.37302 462.370839,421.934228 C454.409408,427.495437 448.858402,436.870226 443.55859,445.96136 C452.064059,424.955151 460.742631,403.137375 461.346539,379.753193 C461.950447,356.369012 424.683149,265.573363 301,363.097442 C274.191914,384.2356 253.304938,454.747164 158,473.792617 C160.945352,473.792617 156.578734,478.669903 159.524086,478.669903 L479.95575,473.895048 Z" id="cloud" fill="#E4E8FD" transform="translate(325.500000, 398.771931) scale(-1, 1) translate(-325.500000, -398.771931)"/></g></g><g id="Floor" transform="translate(112.000000, 2049.500000)" fill="#090E2B" fill-rule="nonzero"><path d="M3214.29077,-2.5 C3216.22377,-2.5 3217.79077,-0.932996624 3217.79077,1 C3217.79077,2.8685634 3216.32649,4.39512645 3214.48281,4.49482114 L3214.29077,4.5 L0.290769851,4.5 C-1.64222677,4.5 -3.20923015,2.93299662 -3.20923015,1 C-3.20923015,-0.868563404 -1.74495255,-2.39512645 0.098734648,-2.49482114 L0.290769851,-2.5 L3214.29077,-2.5 Z" id="Path-4-Copy"/></g></g><g transform="translate(2260.000000, 1123.000000) scale(-1, 1) translate(-2260.000000, -1123.000000) translate(1705.000000, 373.000000) scale(1 1)" id="Master/Character/Standing"><g id="Master/Character/Standing" stroke="none" stroke-width="1" fill="none" fill-rule="evenodd"><g id="Lower Body/Standing" transform="translate(-64.000000, 629.000000) scale(1 1)"><g id="Lower Body/Standing/Running" stroke="none" stroke-width="1" fill="none" fill-rule="evenodd"><g id="Group" transform="translate(68.000000, 0.000000)"><g id="leg-2" transform="translate(713.999940, 727.000000)"><path d="M86.8812876,-5.95025052e-13 C86.8812876,-5.95025052e-13 110.415193,71.5226503 114.153391,77.1032393 C118.69279,83.8785521 136.916223,85.263092 136.916223,85.263092 C136.916223,85.263092 135.741202,111.238847 117.660601,117.980663 C105.075708,122.673583 66.2386266,135.834528 70.4499571,125.734086 C74.6624034,115.633644 -6.34304245e-14,35.5882577 -6.34304245e-14,35.5882577 L86.8812876,-5.95025052e-13 Z" id="Fill-1" fill="#757eff"/><g id="shoe-2" transform="translate(64.488745, 73.673999)"><path d="M187.396689,7.11111109 C173.558663,-6.85599321 130.552655,3.64864483 97.8796932,6.01464483 C73.7900794,7.75871845 63.8453584,3.58946692 57.7303369,6.68681661 C52.0270751,9.57536876 70.1835558,30.0230129 35.8680193,40.5734301 C27.402955,43.1761418 16.7875902,44.9414301 2.34252578,42.1031234 C0,41.6430988 0.280379859,43.4809638 0.00252578201,52.0237982 C-0.151465634,56.7837123 6.73128115,94.6240804 21.9273326,104.120461 C47.2299078,92.0425835 65.1063026,77.7963381 90.9087919,69.1909761 C137.676431,53.5914546 159.69274,38.9879086 190.851453,19.0248534 C195.574972,15.9989638 190.93626,10.6841172 187.396689,7.11111109" id="Fill-16" fill="#071777"/><path d="M183.670878,29.3737307 C122.110019,72.5702583 80.6004056,73.0782951 66.2747404,86.9303933 C60.3137103,92.6952154 22.7531953,112.913964 17.4717361,105.868442 C13.5248691,100.603841 11.6624657,93.5259393 12.6968863,93.2400988 C17.7908777,91.8343442 25.9825515,92.4652031 55.5466717,79.1378902 C92.6184314,61.5587 139.393882,52.0600865 184.200921,19.5200497 C189.350706,15.7784424 191.07474,11.3423319 191.07474,11.3423319 C191.07474,11.3423319 194.406758,13.6636694 194.27062,17.0301111 C194.135599,20.3965528 190.752251,24.4050191 183.670878,29.3737307" id="Fill-18" fill="#FFB201"/><path d="M99.9297876,17.201727 C96.2060966,16.5440706 98.5896159,7.29110127 101.759831,4.64707673 C105.745753,1.32306446 112.213393,3.95369023 107.395024,5.47780066 C101.806697,7.2464387 103.527384,17.8359356 99.9297876,17.201727" id="Fill-20" fill="#FFB201"/><path d="M118.468234,15.1375344 C112.566346,11.7253135 117.851152,0.797497591 123.354672,0.793029745 C126.010466,0.790798204 127.154243,3.144516 124.936989,3.03955894 C116.410552,6.31555894 122.563513,14.7936326 118.468234,15.1375344" id="Fill-22" fill="#FFB201"/></g></g><g id="leg-1" transform="translate(-0.000060, 553.000000)"><path d="M100.386404,52.8810145 C100.386404,52.8810145 159.42143,13.4878607 177.805139,1.34132224 C197.031328,-11.3617931 218.582716,70.3468222 218.582716,70.3468222 C218.582716,70.3468222 138.367262,89.2972069 128.931267,94.7982838 C124.401542,97.4372838 117.672879,108.472899 117.672879,108.472899 C117.672879,108.472899 90.7638126,98.3998607 89.5023279,80.3518222 C88.2408432,62.3026684 100.386404,52.8810145 100.386404,52.8810145" id="Fill-3" fill="#757eff"/><g id="shoe-1" transform="translate(-0.000000, 45.068572)"><path d="M64.6502973,0.515596262 C59.7808993,0.967327032 57.1640728,-1.57240374 51.348282,12.1501732 C45.5324912,25.8705193 39.197134,51.166327 37.3792106,55.2943655 C29.8147718,72.472404 12.3707514,92.1399809 8.66227688,109.025789 C-6.18726394,176.635942 23.6090269,187.089327 27.4426442,184.842942 C39.4574759,177.802635 48.4577054,155.851865 58.1551595,145.466519 C76.8472565,125.449827 123.79594,62.9146732 124.85295,56.0539424 C108.804496,51.4507501 101.990915,40.0626732 101.080277,29.5457116 C100.013211,17.2340963 104.259129,9.41525011 102.669144,6.07801934 C101.07916,2.74078857 78.4674095,-0.764865276 64.6502973,0.515596262" id="Fill-8" fill="#071777"/><path d="M91.2091871,105.760418 C90.3197789,105.765965 89.6080289,104.987427 89.6962993,104.104042 C90.1756412,91.2380809 71.5584065,91.2258116 72.1740646,87.5327732 C72.8500595,84.0505424 94.2070289,88.332504 92.9142585,103.681312 C92.848335,104.467658 91.9812738,105.760418 91.2091871,105.760418" id="Fill-10" fill="#FFB201"/><path d="M103.614531,88.9339122 C102.909486,88.9339122 102.279302,88.4419232 102.130695,87.7269616 C99.5060468,76.5865001 83.9671029,75.1153078 84.6319243,71.4769232 C85.6274804,68.2345001 104.543047,74.982577 105.100603,87.1123847 C105.144179,88.0604616 104.560924,88.9449616 103.614531,88.9339122" id="Fill-12" fill="#FFB201"/><path d="M53.603982,41.4101693 C56.2520942,27.6039386 62.9841095,3.92097703 64.6500738,0.515707801 C59.7806759,0.96743857 52.9168136,-3.99825374 47.1021401,9.7232078 C41.2863493,23.4457847 39.1969106,51.1664386 37.3789871,55.294477 C29.8145483,72.4725155 9.28329831,94.9385924 4.51222688,111.557823 C0.0171401435,127.210015 -3.41981904,157.183746 5.91561463,175.737054 C12.1850483,188.198131 23.6088034,187.089439 27.4424208,184.843054 C28.937431,183.967477 30.9978187,182.431592 32.4067932,181.144439 C31.1743595,181.738939 30.1832728,182.172823 28.5821146,182.629015 C19.8768646,185.112977 11.2610024,173.239708 8.7737881,151.720592 C6.28657382,130.200362 10.212931,108.782746 22.8579463,90.4391309 C30.1173493,79.9099001 51.0027983,54.975477 53.603982,41.4101693" id="Fill-14" fill="#FFB201"/></g></g><path d="M628.138791,249.3571 C642.496601,138.247068 634.681308,0 634.681308,0 C634.681308,0 566.831168,0 431.130889,0 C431.130889,0 395.87848,47.5599962 403.828897,124.793374 C409.714735,181.97064 438.898174,240.012628 469.347671,295.628481 C465.477985,313.947934 461.130449,327.818967 456.262638,334.800251 C403.669066,410.250365 228.935865,470.048962 161.148248,559.937184 C150.091841,574.599667 222.21248,666.522888 234.548362,690.412634 C239.409474,699.8252 471.501343,556.50124 552.417535,481.747692 C588.663747,604.444826 628.841051,786.246222 671.533763,795.696743 C692.752283,800.392979 793.508156,749.169731 811.990207,737.243277 C812.892315,724.978587 750.950536,570.720556 683.29243,412.72295 C659.567433,357.316959 641.688276,299.934016 628.138791,249.3571 Z" id="Fill-5" fill="#001386"/><path d="M471.288096,298.13676 C505.014456,355.262303 534.453719,411.650388 552.413,478.304688 C553.534826,482.467575 552.760844,483.591106 552.44208,482.729434 C536.582168,439.861776 518.87678,401.465864 499.598822,361.495442 C489.321197,340.583652 481.468415,317.597134 470.081267,297.243754 C469.774806,296.759203 470.368714,296.967347 471.288096,298.13676" id="Fill-24" fill="#090E2B"/><path d="M574.19504,47.2123655 C585.49684,73.8390424 597.737357,124.231476 605.43642,152.401485 C613.442002,183.507291 621.340528,217.439373 628.964087,248.75416 C629.146647,249.423571 628.582064,248.592116 628.393869,247.85677 C611.590486,189.736498 575.655518,55.8454167 574.833999,52.9006801 C574.379854,51.5618587 573.647361,45.8344299 574.19504,47.2123655" id="Fill-26" fill="#090E2B"/></g></g></g><g id="Upper Body/Standing" transform="translate(69.000000, -172.000000) scale(1 1)"><g id="Upper Body/Standing/Reading Book 1" stroke="none" stroke-width="1" fill="none" fill-rule="evenodd"><path d="M667.706947,637.526131 C667.706947,637.526131 686.709367,621.889752 719.016378,599.239166 C743.585769,582.013835 753.342202,573.790903 755.300082,560.226767 C758.168975,540.378863 766.745686,540.253787 773.738113,540.253787 C777.833678,540.253787 787.436278,536.13932 790.715726,542.817325 C790.558896,548.009439 791.965373,561.226367 789.66886,563.587783 C783.890118,569.530347 675.264762,709 675.264762,709 C675.264762,709 644.399189,673.129485 667.706947,637.526131" id="Fill-1" fill="#757eff"/><path d="M600.229735,584.470543 C595.585237,641.542614 606.747381,670.540265 608.748145,678.495999 C608.748145,678.495999 663.607003,633.496377 688.465532,617.982728 C699.251714,656.608389 699.251714,721.786291 700,725.533288 C693.264427,733.776482 633.286518,783.098428 598.068066,786.803359 C588.336348,787.826997 550.414864,786.767301 551.89743,734.313342 C553.380997,681.858381 536.838678,542.219872 562.460465,507 C562.460465,507 604.874233,527.398472 600.229735,584.470543 Z" id="Fill-3" fill="#FF0057"/><polygon id="Fill-5" fill="#090E2B" points="740.969919 404.281843 684 548.593005 770.179285 555 825 419.763083 795.218314 375 783.78891 411.437785"/><path d="M438.790041,475.406505 C435.996263,488.316702 386,498.803353 386,498.803353 C386,498.803353 482.987464,558.327979 499.715391,554.853615 C530.560547,548.448378 545.341479,517.273832 551,502.480856 C534.182843,498.025212 515.379589,491.806458 504.396404,486.875134 C493.412216,481.94381 498.561741,445.73679 497.890018,427.336817 C475.135624,422.831312 443.128272,414 443.128272,414 C443.128272,414 441.58382,462.496308 438.790041,475.406505 Z" id="Fill-8" fill="#757eff"/><path d="M411.312855,491 C411.312855,491 467.839397,532.310272 496.696933,532.988534 C510.837236,533.320174 526.733328,504.512487 529.528993,494.329555 C544.882133,499.440298 558.96115,505.284742 567.082486,510.045473 C572.981778,534.569816 578.969059,590.674832 577.868191,613.957525 C576.814318,636.273268 562.147078,679.349446 563.149958,698.15101 C564.151838,716.953572 568.827276,782.150706 575.592465,826.232791 C579.303019,850.41051 370.769047,847.995136 332.065692,830.489164 C330.040935,811.617677 375.485481,746.829099 376.65334,728.658849 C377.8202,710.487601 370.963023,677.452508 368.506318,652.816287 C366.050613,628.181064 347.206896,525.740083 351.294796,514.952268 C354.020062,507.760391 374.026082,499.776302 411.312855,491 Z" id="Fill-10" fill="#FF0057"/><path d="M405.618135,926.320199 C411.881797,932.360124 414.925178,935.521854 417.253434,941.186343 C420.482821,949.041542 421.503878,958.882724 422.386906,961.72745 C425.66859,972.305557 414.84095,965.985163 412.010882,958.782454 C406.441172,971.987615 415.329778,998.383957 406.441172,995.826798 C379.999628,988.219228 382.726151,968.884277 380.455222,937.932779 C379.658687,927.080084 344.563877,893.761143 339.173185,883.523524 C336.308877,878.0817 369.841795,844.78872 375.595554,852.023849 C381.348307,859.258979 394.152859,915.260815 405.618135,926.320199 Z" id="Fill-12" fill="#757eff"/><path d="M370.304538,503 C370.304538,503 329.453127,514.045798 318.514926,559.694102 C307.576725,605.341406 255.981833,700.81939 250.594974,734.479625 C242.034774,787.963242 254.534572,841.963078 289.856557,934 C303.850754,923.869716 375.805583,865.84918 379.972851,850.091516 C363.448204,819.88174 345.75612,765.58778 347.973648,739.329676 C350.191176,713.070571 393.117548,659.607962 395.603867,627.989591 C397.994906,597.569393 389.561796,555.906196 370.304538,503 Z" id="Fill-15" fill="#FF0057"/><path d="M768.847874,535.082556 C776.83495,549.301006 767.403477,548.610412 765.366586,556.293637 C761.371534,571.354152 791.347549,559.697774 791.347549,559.697774 C791.347549,559.697774 792.367004,548.611409 791.857276,544.212738 C790.861037,535.617691 787.74211,525.266763 779.454243,520.233305 C776.36156,518.354851 764.999178,528.231432 768.847874,535.082556" id="Fill-17" fill="#757eff"/><path d="M595.720806,702.745385 C595.322387,703.717771 592.094305,711.112734 591.010207,712.989528 C590.650895,713.611569 599.840005,686.345685 608.831465,678.082479 C609.234334,677.713875 608.822144,678.671011 608.558538,679.173284 C604.602454,686.718523 599.072087,694.56623 595.720806,702.745385 Z" id="Fill-19" fill="#090E2B"/><path d="M563.289599,679.303785 C565.091606,666.868978 568.853781,654.78787 571.332435,642.545091 C575.234909,622.144127 574.071235,600.424352 568.766147,581.12052 C568.701753,580.894487 568.003006,578.058748 568.199254,578 C568.395502,577.944732 569.487767,580.664453 569.554205,580.91649 C582.035378,621.771426 574.002495,640.868201 565.527032,679.650835 C562.381082,702.276993 565.846963,738.523069 568.356833,766.310415 C568.7213,770.345519 569.478553,779.11675 569.404953,778.997621 C569.325146,778.868447 569.095412,777.832976 568.87552,776.405133 C566.523125,761.130132 559.019776,707.065297 563.289599,679.303785 Z" id="Fill-21" fill="#090E2B"/><path d="M396.034626,584.921793 C402.614809,619.820294 392.180462,655.246502 372.079421,683.934218 C371.872859,684.237475 372.110207,683.413494 372.324713,683.063352 C387.692709,657.151834 397.001891,628.606767 395.512263,598.030677 C395.302722,593.722233 394.885626,587.520427 394.40398,583.25787 C394.279844,582.369047 395.898573,583.989078 396.034626,584.921793" id="Fill-23" fill="#090E2B"/><path d="M353,779 C359.937619,797.512629 366.399194,817.03696 372.768123,835.563544 C373.197843,836.816458 374.462365,839.829632 373.822712,838.783045 C368.968646,830.840944 364.291987,818.621791 361.019804,809.879301 C358.116235,800.073279 353.610085,788.301667 353,779" id="Fill-25" fill="#090E2B"/><path d="M764.710282,563.510255 C762.454763,556.677208 765.928745,552.430788 770.109478,548.812478 C770.586587,548.400002 771.506201,547.48306 771.94661,547.025084 C772.125919,546.839124 771.813439,547.735293 771.601623,548.126008 C769.867254,551.324918 766.276878,553.326957 765.233529,558.940383 C765.074144,559.795008 765.439053,565.718037 764.710282,563.510255" id="Fill-27" fill="#090E2B"/><polygon id="Fill-29" fill="#FFB201" points="776.342219 381 763 407.50771 820.323352 417 821 416.103302"/></g></g><g id="Head" transform="translate(399.000000, 26.000000) scale(1 1)"><g id="Head/Short Hair Dark" stroke="none" stroke-width="1" fill="none" fill-rule="evenodd"><path d="M203.3041,80.3781 C203.3041,80.3781 245.325044,106.524642 237.9671,158.0421 C233.30916,190.655184 248.155059,198.619131 237.9671,236.39085 C233.30916,253.6601 223.9421,270.1291 204.9101,273.8721 C190.5291,276.7011 155.4841,270.1421 130.1601,253.6601 C115.741004,244.275411 108.695804,231.120338 102.839951,212.467257 C86.3461236,211.07768 67.2046642,185.016111 81.55,174.4899 C84.9121577,172.023692 88.2985705,171.112896 91.8838097,171.633573 C86.3580791,146.740974 87.2671,137.240294 87.2671,126.0621 C87.2671,110.5371 68.5191,91.9091 103.9891,87.9181 C139.4581,83.9261 195.8531,70.4331 203.3041,80.3781 Z" id="Combined-Shape" fill="#757eff"/><path d="M86.5912,186.8615 C91.2362,181.0155 99.3112,184.2235 102.9222,189.5595 C104.5732,191.9995 105.1982,196.5475 104.3242,197.5495 C104.1152,197.7905 103.5582,195.9695 103.1792,195.2405 C99.7342,188.6025 96.3562,185.4085 87.2562,187.8575 C86.6992,187.9965 86.2372,187.3175 86.5912,186.8615" id="Fill-8" fill="#090E2B"/><path d="M101.9779,193.4806 C96.6629,193.6326 98.9159,202.7266 96.9999,200.2376 C96.0239,196.4226 97.4289,191.4386 101.8789,190.7476 C103.9009,190.3956 104.0229,193.6846 101.9779,193.4806" id="Fill-10" fill="#090E2B"/><path d="M164.020452,271.36959 C154.644565,269.470255 148.435203,265.601303 140.050203,261.363303 C139.551203,261.083303 130.571062,255.208763 130.268783,254.3815 C129.882863,253.325333 130.7298,253.9565 131.3648,254.3815 C138.7548,259.3395 158.1098,266.6665 169.8538,269.9605 C170.357039,270.040748 173.552665,271.357952 171.903442,271.675889 C171.278277,271.796408 167.7443,272.123954 164.020452,271.36959 Z" id="Fill-12" fill="#090E2B"/><path d="M123.991097,197.974758 C127.207892,191.05864 123.657342,175.918238 118.355838,164.003141 C115.785715,158.226807 110.408838,116.248782 130.751715,118.061567 C151.63046,119.922104 160.5076,123.0061 180.4026,122.6081 C193.0006,122.3561 215.366179,111.996593 215.705179,108.447593 C220.759389,111.359054 234.024819,113.974183 238.403543,137.719356 C246.854543,128.547356 246.0036,115.7791 243.8766,103.7461 C240.6826,85.6911 220.0506,84.2101 217.6836,83.9141 C220.3876,77.1091 214.2306,61.5091 206.7796,54.3251 C201.5256,49.2601 186.4756,32.6451 163.7056,35.2811 C151.1626,36.7331 147.0366,50.7761 147.0366,50.7761 C141.9666,47.5221 122.7226,46.0641 110.0236,50.7881 C88.7996,58.6831 104.4456,72.0791 106.8116,74.7421 C101.0646,76.2221 80.2401078,86.8514986 71.692034,103.7461 C60.6046971,125.659357 68.0307556,147.086046 78.446496,160.848214 C88.8622364,174.610382 94.4314772,169.724614 105.882354,179.67861 C112.512678,189.080043 121.004519,204.395906 123.991097,197.974758 Z" id="Fill-3" fill="#090E2B"/></g></g><g id="Expressions" transform="translate(520.000000, 159.000000) scale(1 1)"><g id="Expressions/Smile" stroke="none" stroke-width="1" fill="none" fill-rule="evenodd"><g id="eye1" transform="translate(21.027098, 10.213671)"><path d="M0.0487023333,7.96572872 C1.82485498,-0.0171869856 25.1977023,-2.81531309 35.4827023,3.36568691 C39.0387023,5.47868691 45.6427023,11.2837287 39.7957023,14.4437287 C38.2517023,15.1157287 36.7517023,14.4267287 35.4827023,13.6077287 C21.4647023,3.86572872 -1.18942441,13.5304877 0.0487023333,7.96572872 Z" id="Fill-1" fill="#090E2B"/><path d="M19.0113023,22.3973287 C13.7233023,23.8973287 9.19030233,28.1473287 8.76930233,31.6693287 C8.51430233,33.7973287 16.8643023,38.9063287 24.9173023,39.3033287 C35.5113023,39.8243287 40.8513023,34.0853287 40.8324531,32.2513287 C40.1193023,26.7013287 33.7283023,18.2233287 19.0113023,22.3973287 Z" id="Fill-6" fill="#FFF"/><path d="M35.3981023,25.5550287 C27.2551023,19.4010287 14.6431023,23.4110287 8.76910233,31.6690287 C8.43210233,32.0970287 8.52910233,31.0200287 8.76310233,30.5290287 C11.5971023,24.5820287 16.7101023,21.7750287 22.6381023,20.5510287 C26.2051023,19.8140287 29.5311023,19.7540287 33.0101023,21.3120287 C34.3551023,21.9130287 36.7311023,23.7450287 38.5671023,25.8170287 C39.9991023,27.4320287 41.2051023,30.2010287 39.5481023,29.2220287 C38.2511023,28.4550287 36.4781023,26.3720287 35.3981023,25.5550287 Z" id="Fill-8" fill="#090E2B"/><path d="M24.8135023,36.0623287 C29.3405023,36.0623287 33.0105023,32.7143287 33.0105023,28.5833287 C33.0105023,24.4533287 29.3405023,21.1043287 24.8135023,21.1043287 C20.2865023,21.1043287 16.6165023,24.4533287 16.6165023,28.5833287 C16.6165023,32.7143287 20.2865023,36.0623287 24.8135023,36.0623287 Z" id="Fill-10" fill="#090E2B"/></g><g id="eye2" transform="translate(81.203378, 15.000183)"><path d="M23.2557812,1.861246 C26.6096324,3.34897691 31.0744206,8.28711729 27.357522,8.28711729 C23.6406234,8.28711729 15.5900245,7.23270759 10.1930245,9.45970759 C8.30802454,9.94170759 6.87752199,10.8641173 4.98452199,11.0891173 C0.67652199,11.9281173 -1.66408888,6.76839233 1.38185604,3.64904337 C4.82290212,0.125071736 16.4397812,-1.545754 23.2557812,1.861246 Z" id="Fill-4" fill="#090E2B"/><path d="M19.455322,34.2343173 C24.826322,32.9853173 28.843322,28.1153173 28.389322,24.4763173 C27.503322,19.6543173 18.218322,16.5753173 13.017322,19.2083173 C7.86632199,21.8153173 4.64332199,27.6403173 5.05932199,29.9403173 C5.66032199,31.5323173 13.966322,35.5113173 19.455322,34.2343173 Z" id="Fill-12" fill="#FFF"/><path d="M15.011222,31.6060173 C18.549222,31.6060173 21.417222,28.8520173 21.417222,25.4560173 C21.417222,22.0590173 19.396222,18.8490173 15.011222,19.3060173 C11.492222,19.6720173 8.60422199,22.0590173 8.60422199,25.4560173 C8.60422199,28.8520173 11.473222,31.6060173 15.011222,31.6060173 Z" id="Fill-14" fill="#090E2B"/><path d="M5.25072199,26.6376173 C7.27972199,19.0636173 16.440722,15.1686173 23.685722,18.7546173 C24.705722,19.2866173 26.361722,20.4806173 27.601722,21.9226173 C28.742722,23.2526173 28.593722,23.9496173 28.127722,23.8116173 C27.355722,23.5816173 25.722722,22.1166173 24.395722,21.4866173 C17.685722,18.3036173 10.704722,20.0896173 5.59372199,27.5586173 C5.34272199,27.9456173 5.10472199,27.0746173 5.25072199,26.6376173" id="Fill-22" fill="#090E2B"/></g><path d="M86.9879908,70.3386563 C86.0131141,75.2575144 79.9689699,75.7359636 76.0323155,74.6212963 C72.832522,73.7152719 72.0034674,71.851321 73.0853454,71.2537752 C74.8485675,70.2799076 80.4997296,72.9889887 82.5858367,70.4027854 C86.305606,65.7912866 74.8914605,48.8346319 78.5177277,51.5592059 C83.3102149,55.1600121 87.6386051,67.0559034 86.9879908,70.3386563 Z" id="nose" fill="#090E2B"/><path d="M89.6387968,90.5818454 C88.8707672,91.1602445 87.0677709,93.5463983 85.244688,95.0617056 C81.1444698,98.4697185 74.4745751,99.2530639 70.5444286,98.4697185 C63.1559339,96.997065 59.9595527,92.178225 58.0067117,90.8585998 C56.0538707,89.5389745 59.7200172,87.8442758 62.5249361,88.0931395 C65.3298551,88.3420033 67.2123883,89.156182 72.5654423,91.4592717 C76.0199316,92.9455259 83.8310598,90.8585998 86.0381944,89.5389745 C90.2484115,87.021725 91.5113061,89.1716685 89.6387968,90.5818454 Z" id="Fill-18" fill="#090E2B"/></g></g><g id="Facial Accesories" transform="translate(517.000000, 209.000000) scale(1 1)" fill="#000"><g id="Facial Accesories/None" stroke="none" stroke-width="1" fill="none" fill-rule="evenodd" fill-opacity="0"/></g><g id="Glass" transform="translate(520.000000, 164.000000) scale(1 1)" fill="#000"><g id="Glass/None" stroke="none" stroke-width="1" fill="none" fill-rule="evenodd" fill-opacity="0"/></g></g></g></g></svg>